# This file uses centimeters as units for non-parametric coordinates.

mtllib Ball2.mtl
g default
v -1.250000 -0.500000 0.500000
v 1.250000 -0.500000 0.500000
v -1.250000 0.500000 0.500000
v 1.250000 0.500000 0.500000
v -1.250000 0.500000 -0.500000
v 1.250000 0.500000 -0.500000
v -1.250000 -0.500000 -0.500000
v 1.250000 -0.500000 -0.500000
v -1.250000 1.500000 0.500000
v 1.250000 1.500000 0.500000
v 1.250000 1.500000 -0.500000
v -1.250000 1.500000 -0.500000
v -1.250000 -0.500000 0.500000
v 1.250000 -0.500000 0.500000
v 1.250000 0.500000 0.500000
v -1.250000 0.500000 0.500000
v -1.250000 0.500000 -0.500000
v 1.250000 0.500000 -0.500000
v 1.250000 -0.500000 -0.500000
v -1.250000 -0.500000 -0.500000
v -1.250000 -0.500000 1.500000
v 1.250000 -0.500000 1.500000
v 1.250000 0.500000 1.500000
v -1.250000 0.500000 1.500000
v -1.250000 0.500000 -1.500000
v 1.250000 0.500000 -1.500000
v 1.250000 -0.500000 -1.500000
v -1.250000 -0.500000 -1.500000
v -1.250000 -1.500000 -0.500000
v 1.250000 -1.500000 -0.500000
v 1.250000 -1.500000 0.500000
v -1.250000 -1.500000 0.500000
vt 0.375000 0.000000
vt 0.625000 0.000000
vt 0.375000 0.250000
vt 0.625000 0.250000
vt 0.375000 0.500000
vt 0.625000 0.500000
vt 0.375000 0.750000
vt 0.625000 0.750000
vt 0.375000 1.000000
vt 0.625000 1.000000
vt 0.875000 0.000000
vt 0.875000 0.250000
vt 0.125000 0.000000
vt 0.125000 0.250000
vt 0.375000 0.250000
vt 0.625000 0.250000
vt 0.625000 0.500000
vt 0.375000 0.500000
vt 0.625000 0.000000
vt 0.625000 0.250000
vt 0.375000 0.250000
vt 0.375000 0.000000
vt 0.375000 0.500000
vt 0.625000 0.500000
vt 0.625000 0.750000
vt 0.375000 0.750000
vt 0.625000 1.000000
vt 0.375000 1.000000
vt 0.375000 0.000000
vt 0.625000 0.000000
vt 0.625000 0.250000
vt 0.375000 0.250000
vt 0.375000 0.500000
vt 0.625000 0.500000
vt 0.625000 0.750000
vt 0.375000 0.750000
vt 0.375000 0.750000
vt 0.625000 0.750000
vt 0.625000 1.000000
vt 0.375000 1.000000
vn 0.000000 0.000000 1.000000
vn 0.000000 0.000000 1.000000
vn 0.000000 0.000000 1.000000
vn 0.000000 0.000000 1.000000
vn 0.000000 1.000000 0.000000
vn 0.000000 1.000000 0.000000
vn 0.000000 1.000000 0.000000
vn 0.000000 1.000000 0.000000
vn 0.000000 0.000000 -1.000000
vn 0.000000 0.000000 -1.000000
vn 0.000000 0.000000 -1.000000
vn 0.000000 0.000000 -1.000000
vn 0.000000 -1.000000 0.000000
vn 0.000000 -1.000000 0.000000
vn 0.000000 -1.000000 0.000000
vn 0.000000 -1.000000 0.000000
vn 1.000000 0.000000 0.000000
vn 1.000000 0.000000 0.000000
vn 1.000000 0.000000 0.000000
vn 1.000000 0.000000 0.000000
vn -1.000000 0.000000 0.000000
vn -1.000000 0.000000 0.000000
vn -1.000000 0.000000 0.000000
vn -1.000000 0.000000 0.000000
vn 0.000000 0.000000 1.000000
vn 0.000000 0.000000 1.000000
vn 0.000000 0.000000 1.000000
vn 0.000000 0.000000 1.000000
vn 1.000000 0.000000 0.000000
vn 1.000000 0.000000 0.000000
vn 0.000000 0.000000 -1.000000
vn 0.000000 0.000000 -1.000000
vn 0.000000 0.000000 -1.000000
vn 0.000000 0.000000 -1.000000
vn -1.000000 0.000000 0.000000
vn -1.000000 0.000000 0.000000
vn 0.000000 0.000000 0.000000
vn 0.000000 0.000000 0.000000
vn 0.000000 0.000000 0.000000
vn 0.000000 0.000000 0.000000
vn 0.000000 0.000000 0.000000
vn 0.000000 0.000000 0.000000
vn 0.000000 0.000000 0.000000
vn 0.000000 0.000000 0.000000
vn 0.000000 0.000000 0.000000
vn 0.000000 0.000000 0.000000
vn 0.000000 0.000000 0.000000
vn 0.000000 0.000000 0.000000
vn 0.000000 0.000000 0.000000
vn 0.000000 0.000000 0.000000
vn 0.000000 0.000000 0.000000
vn 0.000000 0.000000 0.000000
vn 0.000000 0.000000 0.000000
vn 0.000000 0.000000 0.000000
vn 0.000000 0.000000 0.000000
vn 0.000000 0.000000 0.000000
vn 0.000000 0.000000 0.000000
vn 0.000000 0.000000 0.000000
vn 0.000000 0.000000 0.000000
vn 0.000000 0.000000 0.000000
vn 0.000000 0.000000 0.000000
vn 0.000000 0.000000 0.000000
vn 0.000000 0.000000 0.000000
vn 0.000000 0.000000 0.000000
vn 0.000000 0.000000 0.000000
vn 0.000000 0.000000 0.000000
vn 0.000000 0.000000 0.000000
vn 0.000000 0.000000 0.000000
vn 0.000000 -1.000000 0.000000
vn 0.000000 -1.000000 0.000000
vn 0.000000 -1.000000 0.000000
vn 0.000000 -1.000000 0.000000
vn 1.000000 0.000000 0.000000
vn 1.000000 0.000000 0.000000
vn 1.000000 0.000000 0.000000
vn 1.000000 0.000000 0.000000
vn 0.000000 1.000000 0.000000
vn 0.000000 1.000000 0.000000
vn 0.000000 1.000000 0.000000
vn 0.000000 1.000000 0.000000
vn -1.000000 0.000000 0.000000
vn -1.000000 0.000000 0.000000
vn -1.000000 0.000000 0.000000
vn -1.000000 0.000000 0.000000
vn 0.000000 1.000000 0.000000
vn 0.000000 1.000000 0.000000
vn 0.000000 1.000000 0.000000
vn 0.000000 1.000000 0.000000
vn 1.000000 0.000000 0.000000
vn 1.000000 0.000000 0.000000
vn 1.000000 0.000000 0.000000
vn 1.000000 0.000000 0.000000
vn 0.000000 -1.000000 0.000000
vn 0.000000 -1.000000 0.000000
vn 0.000000 -1.000000 0.000000
vn 0.000000 -1.000000 0.000000
vn -1.000000 0.000000 0.000000
vn -1.000000 0.000000 0.000000
vn -1.000000 0.000000 0.000000
vn -1.000000 0.000000 0.000000
vn 0.000000 0.000000 -1.000000
vn 0.000000 0.000000 -1.000000
vn 0.000000 0.000000 -1.000000
vn 0.000000 0.000000 -1.000000
vn 1.000000 0.000000 0.000000
vn 1.000000 0.000000 0.000000
vn 1.000000 0.000000 0.000000
vn 1.000000 0.000000 0.000000
vn 0.000000 0.000000 1.000000
vn 0.000000 0.000000 1.000000
vn 0.000000 0.000000 1.000000
vn 0.000000 0.000000 1.000000
vn -1.000000 0.000000 0.000000
vn -1.000000 0.000000 0.000000
vn -1.000000 0.000000 0.000000
vn -1.000000 0.000000 0.000000
s off
g pCube2 XP
usemtl phong3SG
f 21/29/1 22/30/2 23/31/3 24/32/4
f 9/15/5 10/16/6 11/17/7 12/18/8
f 25/33/9 26/34/10 27/35/11 28/36/12
f 29/37/13 30/38/14 31/39/15 32/40/16
s 1
usemtl phong4SG
f 2/2/17 8/11/18 6/12/19 4/4/20
s 2
f 7/13/21 1/1/22 3/3/23 5/14/24
s off
usemtl phong3SG
f 3/3/25 4/4/26 10/16/27 9/15/28
s 1
usemtl phong4SG
f 4/4/20 6/6/19 11/17/29 10/16/30
s off
usemtl phong3SG
f 6/6/31 5/5/32 12/18/33 11/17/34
s 2
usemtl phong4SG
f 5/5/24 3/3/23 9/15/35 12/18/36
s off
usemtl initialShadingGroup
f 2/2/37 4/4/38 15/20/39 14/19/40
f 4/4/41 3/3/42 16/21/43 15/20/44
f 3/3/45 1/1/46 13/22/47 16/21/48
f 5/5/49 6/6/50 18/24/51 17/23/52
f 6/6/53 8/8/54 19/25/55 18/24/56
f 7/7/57 5/5/58 17/23/59 20/26/60
f 8/8/61 2/10/62 14/27/63 19/25/64
f 1/9/65 7/7/66 20/26/67 13/28/68
usemtl phong3SG
f 13/22/69 14/19/70 22/30/71 21/29/72
usemtl phong4SG
f 14/19/73 15/20/74 23/31/75 22/30/76
usemtl phong3SG
f 15/20/77 16/21/78 24/32/79 23/31/80
usemtl phong4SG
f 16/21/81 13/22/82 21/29/83 24/32/84
usemtl phong3SG
f 17/23/85 18/24/86 26/34/87 25/33/88
usemtl phong4SG
f 18/24/89 19/25/90 27/35/91 26/34/92
usemtl phong3SG
f 19/25/93 20/26/94 28/36/95 27/35/96
usemtl phong4SG
f 20/26/97 17/23/98 25/33/99 28/36/100
usemtl phong3SG
f 20/26/101 19/25/102 30/38/103 29/37/104
usemtl phong4SG
f 19/25/105 14/27/106 31/39/107 30/38/108
usemtl phong3SG
f 14/27/109 13/28/110 32/40/111 31/39/112
usemtl phong4SG
f 13/28/113 20/26/114 29/37/115 32/40/116
