# This file uses centimeters as units for non-parametric coordinates.

mtllib EnemyBullet.mtl
g default
v 0.150000 -0.200000 0.200000
v 0.150000 -0.200000 -0.200000
v 0.150000 -0.120000 0.200000
v 0.150000 -0.120000 -0.200000
v 0.150000 -0.040000 0.200000
v 0.150000 -0.040000 -0.200000
v 0.150000 0.040000 0.200000
v 0.150000 0.040000 -0.200000
v 0.150000 0.120000 0.200000
v 0.150000 0.120000 -0.200000
v 0.150000 0.200000 0.200000
v 0.150000 0.200000 -0.200000
v -0.150000 0.200000 0.200000
v -0.150000 0.200000 -0.200000
v -0.150000 0.120000 0.200000
v -0.150000 0.120000 -0.200000
v -0.150000 0.040000 0.200000
v -0.150000 0.040000 -0.200000
v -0.150000 -0.040000 0.200000
v -0.150000 -0.040000 -0.200000
v -0.150000 -0.120000 0.200000
v -0.150000 -0.120000 -0.200000
v -0.150000 -0.200000 0.200000
v -0.150000 -0.200000 -0.200000
v 0.250000 -0.120000 0.200000
v 0.250000 -0.120000 -0.200000
v 0.250000 -0.040000 -0.200000
v 0.250000 -0.040000 0.200000
v 0.250000 0.040000 -0.200000
v 0.250000 0.040000 0.200000
v 0.250000 0.120000 -0.200000
v 0.250000 0.120000 0.200000
v -0.250000 0.120000 0.200000
v -0.250000 0.120000 -0.200000
v -0.250000 0.040000 -0.200000
v -0.250000 0.040000 0.200000
v -0.250000 -0.040000 -0.200000
v -0.250000 -0.040000 0.200000
v -0.250000 -0.120000 -0.200000
v -0.250000 -0.120000 0.200000
vt 0.375000 0.000000
vt 0.625000 0.000000
vt 0.375000 0.050000
vt 0.625000 0.050000
vt 0.375000 0.100000
vt 0.625000 0.100000
vt 0.375000 0.150000
vt 0.625000 0.150000
vt 0.375000 0.200000
vt 0.625000 0.200000
vt 0.375000 0.250000
vt 0.625000 0.250000
vt 0.375000 0.500000
vt 0.625000 0.500000
vt 0.375000 0.550000
vt 0.625000 0.550000
vt 0.375000 0.600000
vt 0.625000 0.600000
vt 0.375000 0.650000
vt 0.625000 0.650000
vt 0.375000 0.700000
vt 0.625000 0.700000
vt 0.375000 0.750000
vt 0.625000 0.750000
vt 0.375000 1.000000
vt 0.625000 1.000000
vt 0.875000 0.000000
vt 0.875000 0.050000
vt 0.875000 0.100000
vt 0.875000 0.150000
vt 0.875000 0.200000
vt 0.875000 0.250000
vt 0.125000 0.000000
vt 0.125000 0.050000
vt 0.125000 0.100000
vt 0.125000 0.150000
vt 0.125000 0.200000
vt 0.125000 0.250000
vt 0.375000 0.050000
vt 0.625000 0.050000
vt 0.625000 0.100000
vt 0.375000 0.100000
vt 0.625000 0.150000
vt 0.375000 0.150000
vt 0.625000 0.200000
vt 0.375000 0.200000
vt 0.375000 0.550000
vt 0.625000 0.550000
vt 0.625000 0.600000
vt 0.375000 0.600000
vt 0.625000 0.650000
vt 0.375000 0.650000
vt 0.625000 0.700000
vt 0.375000 0.700000
vn 1.000000 0.000000 0.000000
vn 1.000000 0.000000 0.000000
vn 1.000000 0.000000 0.000000
vn 1.000000 0.000000 0.000000
vn 1.000000 0.000000 0.000000
vn 1.000000 0.000000 0.000000
vn 1.000000 0.000000 0.000000
vn 1.000000 0.000000 0.000000
vn 1.000000 0.000000 0.000000
vn 1.000000 0.000000 0.000000
vn 1.000000 0.000000 0.000000
vn 1.000000 0.000000 0.000000
vn 1.000000 0.000000 0.000000
vn 1.000000 0.000000 0.000000
vn 1.000000 0.000000 0.000000
vn 1.000000 0.000000 0.000000
vn 0.000000 1.000000 0.000000
vn 0.000000 1.000000 0.000000
vn 0.000000 1.000000 0.000000
vn 0.000000 1.000000 0.000000
vn -1.000000 0.000000 -0.000000
vn -1.000000 0.000000 -0.000000
vn -1.000000 0.000000 -0.000000
vn -1.000000 0.000000 -0.000000
vn -1.000000 0.000000 -0.000000
vn -1.000000 0.000000 -0.000000
vn -1.000000 0.000000 -0.000000
vn -1.000000 0.000000 -0.000000
vn -1.000000 0.000000 -0.000000
vn -1.000000 0.000000 -0.000000
vn -1.000000 0.000000 -0.000000
vn -1.000000 0.000000 -0.000000
vn -1.000000 0.000000 -0.000000
vn -1.000000 0.000000 -0.000000
vn -1.000000 0.000000 -0.000000
vn -1.000000 0.000000 -0.000000
vn 0.000000 -1.000000 0.000000
vn 0.000000 -1.000000 0.000000
vn 0.000000 -1.000000 0.000000
vn 0.000000 -1.000000 0.000000
vn 0.000000 0.000000 -1.000000
vn 0.000000 0.000000 -1.000000
vn 0.000000 0.000000 -1.000000
vn 0.000000 0.000000 -1.000000
vn 0.000000 0.000000 -1.000000
vn 0.000000 0.000000 -1.000000
vn 0.000000 0.000000 -1.000000
vn 0.000000 0.000000 -1.000000
vn 0.000000 0.000000 -1.000000
vn 0.000000 0.000000 -1.000000
vn 0.000000 0.000000 -1.000000
vn 0.000000 0.000000 -1.000000
vn 0.000000 0.000000 1.000000
vn 0.000000 0.000000 1.000000
vn 0.000000 0.000000 1.000000
vn 0.000000 0.000000 1.000000
vn 0.000000 0.000000 1.000000
vn 0.000000 0.000000 1.000000
vn 0.000000 0.000000 1.000000
vn 0.000000 0.000000 1.000000
vn 0.000000 0.000000 1.000000
vn 0.000000 0.000000 1.000000
vn 0.000000 0.000000 1.000000
vn 0.000000 0.000000 1.000000
vn 0.000000 -1.000000 0.000000
vn 0.000000 -1.000000 0.000000
vn 0.000000 -1.000000 0.000000
vn 0.000000 -1.000000 0.000000
vn 0.000000 0.000000 -1.000000
vn 0.000000 0.000000 -1.000000
vn 0.000000 0.000000 1.000000
vn 0.000000 0.000000 1.000000
vn 0.000000 0.000000 -1.000000
vn 0.000000 0.000000 1.000000
vn 0.000000 0.000000 -1.000000
vn 0.000000 1.000000 0.000000
vn 0.000000 1.000000 0.000000
vn 0.000000 1.000000 0.000000
vn 0.000000 1.000000 0.000000
vn 0.000000 0.000000 1.000000
vn 0.000000 1.000000 0.000000
vn 0.000000 1.000000 0.000000
vn 0.000000 1.000000 0.000000
vn 0.000000 1.000000 0.000000
vn 0.000000 0.000000 -1.000000
vn 0.000000 0.000000 -1.000000
vn 0.000000 0.000000 1.000000
vn 0.000000 0.000000 1.000000
vn 0.000000 0.000000 -1.000000
vn 0.000000 0.000000 1.000000
vn 0.000000 0.000000 -1.000000
vn 0.000000 -1.000000 0.000000
vn 0.000000 -1.000000 0.000000
vn 0.000000 -1.000000 0.000000
vn 0.000000 -1.000000 0.000000
vn 0.000000 0.000000 1.000000
s off
g bullet Bullet
usemtl phong1SG
f 1/1/1 2/2/2 4/4/3 3/3/4
s 1
f 25/39/5 26/40/6 27/41/7 28/42/8
f 28/42/8 27/41/7 29/43/9 30/44/10
f 30/44/10 29/43/9 31/45/11 32/46/12
s off
f 9/9/13 10/10/14 12/12/15 11/11/16
f 11/11/17 12/12/18 14/14/19 13/13/20
f 13/13/21 14/14/22 16/16/23 15/15/24
s 2
f 33/47/25 34/48/26 35/49/27 36/50/28
f 36/50/28 35/49/27 37/51/29 38/52/30
f 38/52/30 37/51/29 39/53/31 40/54/32
s off
f 21/21/33 22/22/34 24/24/35 23/23/36
f 23/23/37 24/24/38 2/26/39 1/25/40
s 3
usemtl phong2SG
f 2/2/41 24/27/42 22/28/43 4/4/44
f 4/4/44 22/28/43 20/29/45 6/6/46
f 6/6/46 20/29/45 18/30/47 8/8/48
f 8/8/48 18/30/47 16/31/49 10/10/50
f 10/10/50 16/31/49 14/32/51 12/12/52
s 4
f 23/33/53 1/1/54 3/3/55 21/34/56
f 21/34/56 3/3/55 5/5/57 19/35/58
f 19/35/58 5/5/57 7/7/59 17/36/60
f 17/36/60 7/7/59 9/9/61 15/37/62
f 15/37/62 9/9/61 11/11/63 13/38/64
s off
usemtl phong1SG
f 3/3/65 4/4/66 26/40/67 25/39/68
s 3
usemtl phong2SG
f 4/4/44 6/6/46 27/41/69 26/40/70
s 4
f 5/5/57 3/3/55 25/39/71 28/42/72
s 3
f 6/6/46 8/8/48 29/43/73 27/41/69
s 4
f 7/7/59 5/5/57 28/42/72 30/44/74
s 3
f 8/8/48 10/10/50 31/45/75 29/43/73
s off
usemtl phong1SG
f 10/10/76 9/9/77 32/46/78 31/45/79
s 4
usemtl phong2SG
f 9/9/61 7/7/59 30/44/74 32/46/80
s off
usemtl phong1SG
f 15/15/81 16/16/82 34/48/83 33/47/84
s 3
usemtl phong2SG
f 16/16/49 18/18/47 35/49/85 34/48/86
s 4
f 17/17/60 15/15/62 33/47/87 36/50/88
s 3
f 18/18/47 20/20/45 37/51/89 35/49/85
s 4
f 19/19/58 17/17/60 36/50/88 38/52/90
s 3
f 20/20/45 22/22/43 39/53/91 37/51/89
s off
usemtl phong1SG
f 22/22/92 21/21/93 40/54/94 39/53/95
s 4
usemtl phong2SG
f 21/21/56 19/19/58 38/52/90 40/54/96
