# This file uses centimeters as units for non-parametric coordinates.

mtllib Laser1.mtl
g default
v 0.350000 -0.050000 0.350000
v 0.450000 -0.050000 0.350000
v 0.350000 0.050000 0.350000
v 0.450000 0.050000 0.350000
v 0.350000 0.050000 0.250000
v 0.450000 0.050000 0.250000
v 0.350000 -0.050000 0.250000
v 0.450000 -0.050000 0.250000
v 0.250000 -0.050000 0.350000
v 0.350000 -0.050000 0.350000
v 0.350000 0.050000 0.350000
v 0.250000 0.050000 0.350000
v 0.250000 -0.050000 0.450000
v 0.350000 -0.050000 0.450000
v 0.350000 0.050000 0.450000
v 0.250000 0.050000 0.450000
v 0.250000 -0.050000 0.450000
v 0.250000 0.050000 0.450000
v 0.250000 -0.050000 0.550000
v 0.250000 0.050000 0.550000
v -0.250000 -0.050000 0.450000
v -0.250000 0.050000 0.450000
v -0.250000 -0.050000 0.550000
v -0.250000 0.050000 0.550000
v -0.250000 -0.050000 0.350000
v -0.250000 0.050000 0.350000
v -0.250000 -0.050000 0.450000
v -0.250000 0.050000 0.450000
v -0.350000 -0.050000 0.350000
v -0.350000 0.050000 0.350000
v -0.350000 -0.050000 0.450000
v -0.350000 0.050000 0.450000
v -0.350000 -0.050000 0.250000
v -0.350000 0.050000 0.250000
v -0.350000 -0.050000 0.350000
v -0.350000 0.050000 0.350000
v -0.450000 -0.050000 0.250000
v -0.450000 0.050000 0.250000
v -0.450000 -0.050000 0.350000
v -0.450000 0.050000 0.350000
v 0.450000 0.050000 0.250000
v 0.550000 0.050000 0.250000
v 0.550000 -0.050000 0.250000
v 0.450000 -0.050000 0.250000
v 0.450000 0.050000 -0.250000
v 0.550000 0.050000 -0.250000
v 0.550000 -0.050000 -0.250000
v 0.450000 -0.050000 -0.250000
v -0.450000 -0.050000 0.250000
v -0.450000 0.050000 0.250000
v -0.550000 -0.050000 0.250000
v -0.550000 0.050000 0.250000
v -0.450000 -0.050000 -0.250000
v -0.450000 0.050000 -0.250000
v -0.550000 -0.050000 -0.250000
v -0.550000 0.050000 -0.250000
v 0.350000 0.050000 -0.250000
v 0.450000 0.050000 -0.250000
v 0.450000 -0.050000 -0.250000
v 0.350000 -0.050000 -0.250000
v 0.350000 0.050000 -0.350000
v 0.450000 0.050000 -0.350000
v 0.450000 -0.050000 -0.350000
v 0.350000 -0.050000 -0.350000
v 0.250000 0.050000 -0.350000
v 0.350000 0.050000 -0.350000
v 0.350000 -0.050000 -0.350000
v 0.250000 -0.050000 -0.350000
v 0.250000 0.050000 -0.450000
v 0.350000 0.050000 -0.450000
v 0.350000 -0.050000 -0.450000
v 0.250000 -0.050000 -0.450000
v 0.250000 0.050000 -0.450000
v 0.250000 -0.050000 -0.450000
v 0.250000 0.050000 -0.550000
v 0.250000 -0.050000 -0.550000
v -0.250000 0.050000 -0.450000
v -0.250000 -0.050000 -0.450000
v -0.250000 0.050000 -0.550000
v -0.250000 -0.050000 -0.550000
v -0.250000 0.050000 -0.350000
v -0.250000 -0.050000 -0.350000
v -0.250000 0.050000 -0.450000
v -0.250000 -0.050000 -0.450000
v -0.350000 0.050000 -0.350000
v -0.350000 -0.050000 -0.350000
v -0.350000 0.050000 -0.450000
v -0.350000 -0.050000 -0.450000
v -0.350000 0.050000 -0.250000
v -0.350000 -0.050000 -0.250000
v -0.350000 0.050000 -0.350000
v -0.350000 -0.050000 -0.350000
v -0.450000 0.050000 -0.250000
v -0.450000 -0.050000 -0.250000
v -0.450000 0.050000 -0.350000
v -0.450000 -0.050000 -0.350000
vt 0.375000 0.000000
vt 0.625000 0.000000
vt 0.375000 0.250000
vt 0.625000 0.250000
vt 0.375000 0.500000
vt 0.625000 0.500000
vt 0.375000 0.750000
vt 0.625000 0.750000
vt 0.375000 1.000000
vt 0.625000 1.000000
vt 0.875000 0.000000
vt 0.875000 0.250000
vt 0.125000 0.000000
vt 0.125000 0.250000
vt 0.375000 0.000000
vt 0.625000 0.000000
vt 0.625000 0.250000
vt 0.375000 0.250000
vt 0.375000 0.000000
vt 0.625000 0.000000
vt 0.625000 0.250000
vt 0.375000 0.250000
vt 0.375000 0.250000
vt 0.375000 0.000000
vt 0.375000 0.000000
vt 0.375000 0.250000
vt 0.375000 0.250000
vt 0.375000 0.000000
vt 0.375000 0.000000
vt 0.375000 0.250000
vt 0.375000 0.250000
vt 0.375000 0.000000
vt 0.375000 0.000000
vt 0.375000 0.250000
vt 0.375000 0.250000
vt 0.375000 0.000000
vt 0.375000 0.000000
vt 0.375000 0.250000
vt 0.375000 0.250000
vt 0.375000 0.000000
vt 0.375000 0.000000
vt 0.375000 0.250000
vt 0.375000 0.250000
vt 0.375000 0.000000
vt 0.375000 0.000000
vt 0.375000 0.250000
vt 0.375000 0.500000
vt 0.625000 0.500000
vt 0.625000 0.750000
vt 0.375000 0.750000
vt 0.375000 0.500000
vt 0.625000 0.500000
vt 0.625000 0.750000
vt 0.375000 0.750000
vt 0.375000 0.250000
vt 0.375000 0.000000
vt 0.375000 0.000000
vt 0.375000 0.250000
vt 0.375000 0.250000
vt 0.375000 0.000000
vt 0.375000 0.000000
vt 0.375000 0.250000
vt 0.375000 0.500000
vt 0.625000 0.500000
vt 0.625000 0.750000
vt 0.375000 0.750000
vt 0.375000 0.500000
vt 0.625000 0.500000
vt 0.625000 0.750000
vt 0.375000 0.750000
vt 0.375000 0.500000
vt 0.625000 0.500000
vt 0.625000 0.750000
vt 0.375000 0.750000
vt 0.375000 0.500000
vt 0.625000 0.500000
vt 0.625000 0.750000
vt 0.375000 0.750000
vt 0.375000 0.750000
vt 0.375000 0.500000
vt 0.375000 0.500000
vt 0.375000 0.750000
vt 0.375000 0.750000
vt 0.375000 0.500000
vt 0.375000 0.500000
vt 0.375000 0.750000
vt 0.375000 0.750000
vt 0.375000 0.500000
vt 0.375000 0.500000
vt 0.375000 0.750000
vt 0.375000 0.750000
vt 0.375000 0.500000
vt 0.375000 0.500000
vt 0.375000 0.750000
vt 0.375000 0.750000
vt 0.375000 0.500000
vt 0.375000 0.500000
vt 0.375000 0.750000
vt 0.375000 0.750000
vt 0.375000 0.500000
vt 0.375000 0.500000
vt 0.375000 0.750000
vn 0.000000 0.000000 1.000000
vn 0.000000 0.000000 1.000000
vn 0.000000 0.000000 1.000000
vn 0.000000 0.000000 1.000000
vn 0.000000 1.000000 0.000000
vn 0.000000 1.000000 0.000000
vn 0.000000 1.000000 0.000000
vn 0.000000 1.000000 0.000000
vn 0.000000 0.000000 -1.000000
vn 0.000000 0.000000 -1.000000
vn 0.000000 0.000000 -1.000000
vn 0.000000 0.000000 -1.000000
vn 0.000000 -1.000000 0.000000
vn 0.000000 -1.000000 0.000000
vn 0.000000 -1.000000 0.000000
vn 0.000000 -1.000000 0.000000
vn 1.000000 0.000000 0.000000
vn 1.000000 0.000000 0.000000
vn 1.000000 0.000000 0.000000
vn 1.000000 0.000000 0.000000
vn -1.000000 0.000000 0.000000
vn -1.000000 0.000000 0.000000
vn -1.000000 0.000000 0.000000
vn -1.000000 0.000000 0.000000
vn 0.000000 0.000000 0.000000
vn 0.000000 0.000000 0.000000
vn 0.000000 0.000000 0.000000
vn 0.000000 0.000000 0.000000
vn 0.000000 0.000000 1.000000
vn 0.000000 0.000000 1.000000
vn 0.000000 0.000000 1.000000
vn 0.000000 0.000000 1.000000
vn 0.000000 0.000000 0.000000
vn 0.000000 0.000000 0.000000
vn 0.000000 0.000000 0.000000
vn 0.000000 0.000000 0.000000
vn 0.000000 0.000000 -1.000000
vn 0.000000 0.000000 -1.000000
vn 0.000000 0.000000 -1.000000
vn 0.000000 0.000000 -1.000000
vn 0.000000 -1.000000 0.000000
vn 0.000000 -1.000000 0.000000
vn 0.000000 -1.000000 0.000000
vn 0.000000 -1.000000 0.000000
vn 1.000000 0.000000 0.000000
vn 1.000000 0.000000 0.000000
vn 1.000000 0.000000 0.000000
vn 1.000000 0.000000 0.000000
vn 0.000000 1.000000 0.000000
vn 0.000000 1.000000 0.000000
vn 0.000000 1.000000 0.000000
vn 0.000000 1.000000 0.000000
vn -1.000000 0.000000 0.000000
vn -1.000000 0.000000 0.000000
vn -1.000000 0.000000 0.000000
vn -1.000000 0.000000 0.000000
vn -1.000000 0.000000 0.000000
vn -1.000000 0.000000 0.000000
vn -1.000000 0.000000 0.000000
vn -1.000000 0.000000 0.000000
vn 0.000000 0.000000 0.000000
vn 0.000000 0.000000 0.000000
vn 0.000000 0.000000 0.000000
vn 0.000000 0.000000 0.000000
vn 1.000000 0.000000 0.000000
vn 1.000000 0.000000 0.000000
vn 1.000000 0.000000 0.000000
vn 1.000000 0.000000 0.000000
vn 0.000000 0.000000 0.000000
vn 0.000000 0.000000 0.000000
vn 0.000000 0.000000 0.000000
vn 0.000000 0.000000 0.000000
vn 0.000000 0.000000 -1.000000
vn 0.000000 0.000000 -1.000000
vn 0.000000 0.000000 -1.000000
vn 0.000000 0.000000 -1.000000
vn 0.000000 -1.000000 0.000000
vn 0.000000 -1.000000 0.000000
vn 0.000000 -1.000000 0.000000
vn 0.000000 -1.000000 0.000000
vn 0.000000 0.000000 1.000000
vn 0.000000 0.000000 1.000000
vn 0.000000 0.000000 1.000000
vn 0.000000 0.000000 1.000000
vn 0.000000 1.000000 0.000000
vn 0.000000 1.000000 0.000000
vn 0.000000 1.000000 0.000000
vn 0.000000 1.000000 0.000000
vn 1.000000 0.000000 0.000000
vn 1.000000 0.000000 0.000000
vn 1.000000 0.000000 0.000000
vn 1.000000 0.000000 0.000000
vn 0.000000 0.000000 0.000000
vn 0.000000 0.000000 0.000000
vn 0.000000 0.000000 0.000000
vn 0.000000 0.000000 0.000000
vn -1.000000 0.000000 0.000000
vn -1.000000 0.000000 0.000000
vn -1.000000 0.000000 0.000000
vn -1.000000 0.000000 0.000000
vn 0.000000 0.000000 0.000000
vn 0.000000 0.000000 0.000000
vn 0.000000 0.000000 0.000000
vn 0.000000 0.000000 0.000000
vn 0.000000 0.000000 -1.000000
vn 0.000000 0.000000 -1.000000
vn 0.000000 0.000000 -1.000000
vn 0.000000 0.000000 -1.000000
vn 0.000000 -1.000000 0.000000
vn 0.000000 -1.000000 0.000000
vn 0.000000 -1.000000 0.000000
vn 0.000000 -1.000000 0.000000
vn 0.000000 0.000000 1.000000
vn 0.000000 0.000000 1.000000
vn 0.000000 0.000000 1.000000
vn 0.000000 0.000000 1.000000
vn 0.000000 1.000000 0.000000
vn 0.000000 1.000000 0.000000
vn 0.000000 1.000000 0.000000
vn 0.000000 1.000000 0.000000
vn 1.000000 0.000000 0.000000
vn 1.000000 0.000000 0.000000
vn 1.000000 0.000000 0.000000
vn 1.000000 0.000000 0.000000
vn 0.000000 0.000000 0.000000
vn 0.000000 0.000000 0.000000
vn 0.000000 0.000000 0.000000
vn 0.000000 0.000000 0.000000
vn -1.000000 0.000000 0.000000
vn -1.000000 0.000000 0.000000
vn -1.000000 0.000000 0.000000
vn -1.000000 0.000000 0.000000
vn 0.000000 0.000000 0.000000
vn 0.000000 0.000000 0.000000
vn 0.000000 0.000000 0.000000
vn 0.000000 0.000000 0.000000
vn 0.000000 0.000000 -1.000000
vn 0.000000 0.000000 -1.000000
vn 0.000000 0.000000 -1.000000
vn 0.000000 0.000000 -1.000000
vn 0.000000 -1.000000 0.000000
vn 0.000000 -1.000000 0.000000
vn 0.000000 -1.000000 0.000000
vn 0.000000 -1.000000 0.000000
vn 0.000000 0.000000 1.000000
vn 0.000000 0.000000 1.000000
vn 0.000000 0.000000 1.000000
vn 0.000000 0.000000 1.000000
vn 0.000000 1.000000 0.000000
vn 0.000000 1.000000 0.000000
vn 0.000000 1.000000 0.000000
vn 0.000000 1.000000 0.000000
vn 0.000000 0.000000 0.000000
vn 0.000000 0.000000 0.000000
vn 0.000000 0.000000 0.000000
vn 0.000000 0.000000 0.000000
vn 0.000000 0.000000 1.000000
vn 0.000000 0.000000 1.000000
vn 0.000000 0.000000 1.000000
vn 0.000000 0.000000 1.000000
vn 0.000000 0.000000 0.000000
vn 0.000000 0.000000 0.000000
vn 0.000000 0.000000 0.000000
vn 0.000000 0.000000 0.000000
vn 0.000000 0.000000 -1.000000
vn 0.000000 0.000000 -1.000000
vn 0.000000 0.000000 -1.000000
vn 0.000000 0.000000 -1.000000
vn 0.000000 1.000000 0.000000
vn 0.000000 1.000000 0.000000
vn 0.000000 1.000000 0.000000
vn 0.000000 1.000000 0.000000
vn 1.000000 0.000000 0.000000
vn 1.000000 0.000000 0.000000
vn 1.000000 0.000000 0.000000
vn 1.000000 0.000000 0.000000
vn 0.000000 -1.000000 0.000000
vn 0.000000 -1.000000 0.000000
vn 0.000000 -1.000000 0.000000
vn 0.000000 -1.000000 0.000000
vn -1.000000 0.000000 0.000000
vn -1.000000 0.000000 0.000000
vn -1.000000 0.000000 0.000000
vn -1.000000 0.000000 0.000000
vn 0.000000 0.000000 -1.000000
vn 0.000000 0.000000 -1.000000
vn 0.000000 0.000000 -1.000000
vn 0.000000 0.000000 -1.000000
vn 0.000000 0.000000 0.000000
vn 0.000000 0.000000 0.000000
vn 0.000000 0.000000 0.000000
vn 0.000000 0.000000 0.000000
vn 0.000000 0.000000 1.000000
vn 0.000000 0.000000 1.000000
vn 0.000000 0.000000 1.000000
vn 0.000000 0.000000 1.000000
vn 0.000000 0.000000 0.000000
vn 0.000000 0.000000 0.000000
vn 0.000000 0.000000 0.000000
vn 0.000000 0.000000 0.000000
vn 1.000000 0.000000 0.000000
vn 1.000000 0.000000 0.000000
vn 1.000000 0.000000 0.000000
vn 1.000000 0.000000 0.000000
vn 0.000000 -1.000000 0.000000
vn 0.000000 -1.000000 0.000000
vn 0.000000 -1.000000 0.000000
vn 0.000000 -1.000000 0.000000
vn -1.000000 0.000000 0.000000
vn -1.000000 0.000000 0.000000
vn -1.000000 0.000000 0.000000
vn -1.000000 0.000000 0.000000
vn 0.000000 1.000000 0.000000
vn 0.000000 1.000000 0.000000
vn 0.000000 1.000000 0.000000
vn 0.000000 1.000000 0.000000
vn 0.000000 0.000000 0.000000
vn 0.000000 0.000000 0.000000
vn 0.000000 0.000000 0.000000
vn 0.000000 0.000000 0.000000
vn 0.000000 0.000000 -1.000000
vn 0.000000 0.000000 -1.000000
vn 0.000000 0.000000 -1.000000
vn 0.000000 0.000000 -1.000000
vn 0.000000 0.000000 0.000000
vn 0.000000 0.000000 0.000000
vn 0.000000 0.000000 0.000000
vn 0.000000 0.000000 0.000000
vn 0.000000 0.000000 1.000000
vn 0.000000 0.000000 1.000000
vn 0.000000 0.000000 1.000000
vn 0.000000 0.000000 1.000000
vn 0.000000 1.000000 0.000000
vn 0.000000 1.000000 0.000000
vn 0.000000 1.000000 0.000000
vn 0.000000 1.000000 0.000000
vn 1.000000 0.000000 0.000000
vn 1.000000 0.000000 0.000000
vn 1.000000 0.000000 0.000000
vn 1.000000 0.000000 0.000000
vn 0.000000 -1.000000 0.000000
vn 0.000000 -1.000000 0.000000
vn 0.000000 -1.000000 0.000000
vn 0.000000 -1.000000 0.000000
vn -1.000000 0.000000 0.000000
vn -1.000000 0.000000 0.000000
vn -1.000000 0.000000 0.000000
vn -1.000000 0.000000 0.000000
vn 0.000000 0.000000 0.000000
vn 0.000000 0.000000 0.000000
vn 0.000000 0.000000 0.000000
vn 0.000000 0.000000 0.000000
vn 0.000000 0.000000 -1.000000
vn 0.000000 0.000000 -1.000000
vn 0.000000 0.000000 -1.000000
vn 0.000000 0.000000 -1.000000
vn 0.000000 0.000000 0.000000
vn 0.000000 0.000000 0.000000
vn 0.000000 0.000000 0.000000
vn 0.000000 0.000000 0.000000
vn 0.000000 0.000000 1.000000
vn 0.000000 0.000000 1.000000
vn 0.000000 0.000000 1.000000
vn 0.000000 0.000000 1.000000
vn 0.000000 1.000000 0.000000
vn 0.000000 1.000000 0.000000
vn 0.000000 1.000000 0.000000
vn 0.000000 1.000000 0.000000
vn 1.000000 0.000000 0.000000
vn 1.000000 0.000000 0.000000
vn 1.000000 0.000000 0.000000
vn 1.000000 0.000000 0.000000
vn 0.000000 -1.000000 0.000000
vn 0.000000 -1.000000 0.000000
vn 0.000000 -1.000000 0.000000
vn 0.000000 -1.000000 0.000000
vn -1.000000 0.000000 0.000000
vn -1.000000 0.000000 0.000000
vn -1.000000 0.000000 0.000000
vn -1.000000 0.000000 0.000000
vn -1.000000 0.000000 0.000000
vn -1.000000 0.000000 0.000000
vn -1.000000 0.000000 0.000000
vn -1.000000 0.000000 0.000000
vn 0.000000 0.000000 0.000000
vn 0.000000 0.000000 0.000000
vn 0.000000 0.000000 0.000000
vn 0.000000 0.000000 0.000000
vn 1.000000 0.000000 0.000000
vn 1.000000 0.000000 0.000000
vn 1.000000 0.000000 0.000000
vn 1.000000 0.000000 0.000000
vn 0.000000 0.000000 0.000000
vn 0.000000 0.000000 0.000000
vn 0.000000 0.000000 0.000000
vn 0.000000 0.000000 0.000000
vn 0.000000 0.000000 1.000000
vn 0.000000 0.000000 1.000000
vn 0.000000 0.000000 1.000000
vn 0.000000 0.000000 1.000000
vn 0.000000 1.000000 0.000000
vn 0.000000 1.000000 0.000000
vn 0.000000 1.000000 0.000000
vn 0.000000 1.000000 0.000000
vn 0.000000 0.000000 -1.000000
vn 0.000000 0.000000 -1.000000
vn 0.000000 0.000000 -1.000000
vn 0.000000 0.000000 -1.000000
vn 0.000000 -1.000000 0.000000
vn 0.000000 -1.000000 0.000000
vn 0.000000 -1.000000 0.000000
vn 0.000000 -1.000000 0.000000
vn 1.000000 0.000000 0.000000
vn 1.000000 0.000000 0.000000
vn 1.000000 0.000000 0.000000
vn 1.000000 0.000000 0.000000
vn 0.000000 0.000000 0.000000
vn 0.000000 0.000000 0.000000
vn 0.000000 0.000000 0.000000
vn 0.000000 0.000000 0.000000
vn -1.000000 0.000000 0.000000
vn -1.000000 0.000000 0.000000
vn -1.000000 0.000000 0.000000
vn -1.000000 0.000000 0.000000
vn 0.000000 0.000000 0.000000
vn 0.000000 0.000000 0.000000
vn 0.000000 0.000000 0.000000
vn 0.000000 0.000000 0.000000
vn 0.000000 0.000000 1.000000
vn 0.000000 0.000000 1.000000
vn 0.000000 0.000000 1.000000
vn 0.000000 0.000000 1.000000
vn 0.000000 1.000000 0.000000
vn 0.000000 1.000000 0.000000
vn 0.000000 1.000000 0.000000
vn 0.000000 1.000000 0.000000
vn 0.000000 0.000000 -1.000000
vn 0.000000 0.000000 -1.000000
vn 0.000000 0.000000 -1.000000
vn 0.000000 0.000000 -1.000000
vn 0.000000 -1.000000 0.000000
vn 0.000000 -1.000000 0.000000
vn 0.000000 -1.000000 0.000000
vn 0.000000 -1.000000 0.000000
vn 1.000000 0.000000 0.000000
vn 1.000000 0.000000 0.000000
vn 1.000000 0.000000 0.000000
vn 1.000000 0.000000 0.000000
vn 0.000000 0.000000 0.000000
vn 0.000000 0.000000 0.000000
vn 0.000000 0.000000 0.000000
vn 0.000000 0.000000 0.000000
vn -1.000000 0.000000 0.000000
vn -1.000000 0.000000 0.000000
vn -1.000000 0.000000 0.000000
vn -1.000000 0.000000 0.000000
vn 0.000000 0.000000 0.000000
vn 0.000000 0.000000 0.000000
vn 0.000000 0.000000 0.000000
vn 0.000000 0.000000 0.000000
vn 0.000000 0.000000 1.000000
vn 0.000000 0.000000 1.000000
vn 0.000000 0.000000 1.000000
vn 0.000000 0.000000 1.000000
vn 0.000000 1.000000 0.000000
vn 0.000000 1.000000 0.000000
vn 0.000000 1.000000 0.000000
vn 0.000000 1.000000 0.000000
vn 0.000000 0.000000 -1.000000
vn 0.000000 0.000000 -1.000000
vn 0.000000 0.000000 -1.000000
vn 0.000000 0.000000 -1.000000
vn 0.000000 -1.000000 0.000000
vn 0.000000 -1.000000 0.000000
vn 0.000000 -1.000000 0.000000
vn 0.000000 -1.000000 0.000000
s off
g pCube38 Laser1
usemtl Sword:phong1SG
f 13/19/1 14/20/2 15/21/3 16/22/4
usemtl phong11SG
f 3/3/5 4/4/6 6/6/7 5/5/8
usemtl Sword:phong1SG
f 69/75/9 70/76/10 71/77/11 72/78/12
usemtl phong11SG
f 7/7/13 8/8/14 2/10/15 1/9/16
usemtl Sword:phong1SG
f 2/2/17 8/11/18 6/12/19 4/4/20
f 7/13/21 1/1/22 3/3/23 5/14/24
usemtl initialShadingGroup
f 1/1/25 2/2/26 10/16/27 9/15/28
usemtl Sword:phong1SG
f 2/2/29 4/4/30 11/17/31 10/16/32
usemtl initialShadingGroup
f 4/4/33 3/3/34 12/18/35 11/17/36
usemtl Sword:phong1SG
f 3/3/37 1/1/38 9/15/39 12/18/40
usemtl phong11SG
f 9/15/41 10/16/42 14/20/43 13/19/44
usemtl Sword:phong1SG
f 10/16/45 11/17/46 15/21/47 14/20/48
usemtl phong11SG
f 11/17/49 12/18/50 16/22/51 15/21/52
usemtl Sword:phong1SG
f 38/43/53 37/44/54 39/45/55 40/46/56
f 12/18/57 9/15/58 17/24/59 18/23/60
usemtl initialShadingGroup
f 9/15/61 13/19/62 19/25/63 17/24/64
usemtl Sword:phong1SG
f 13/19/65 16/22/66 20/26/67 19/25/68
usemtl initialShadingGroup
f 16/22/69 12/18/70 18/23/71 20/26/72
usemtl Sword:phong1SG
f 18/23/73 17/24/74 21/28/75 22/27/76
usemtl phong11SG
f 17/24/77 19/25/78 23/29/79 21/28/80
usemtl Sword:phong1SG
f 19/25/81 20/26/82 24/30/83 23/29/84
usemtl phong11SG
f 20/26/85 18/23/86 22/27/87 24/30/88
usemtl Sword:phong1SG
f 22/27/89 21/28/90 25/32/91 26/31/92
usemtl initialShadingGroup
f 21/28/93 23/29/94 27/33/95 25/32/96
usemtl Sword:phong1SG
f 23/29/97 24/30/98 28/34/99 27/33/100
usemtl initialShadingGroup
f 24/30/101 22/27/102 26/31/103 28/34/104
usemtl Sword:phong1SG
f 26/31/105 25/32/106 29/36/107 30/35/108
usemtl phong11SG
f 25/32/109 27/33/110 31/37/111 29/36/112
usemtl Sword:phong1SG
f 27/33/113 28/34/114 32/38/115 31/37/116
usemtl phong11SG
f 28/34/117 26/31/118 30/35/119 32/38/120
usemtl Sword:phong1SG
f 30/35/121 29/36/122 33/40/123 34/39/124
usemtl initialShadingGroup
f 29/36/125 31/37/126 35/41/127 33/40/128
usemtl Sword:phong1SG
f 31/37/129 32/38/130 36/42/131 35/41/132
usemtl initialShadingGroup
f 32/38/133 30/35/134 34/39/135 36/42/136
usemtl Sword:phong1SG
f 54/59/137 53/60/138 55/61/139 56/62/140
usemtl phong11SG
f 33/40/141 35/41/142 39/45/143 37/44/144
usemtl Sword:phong1SG
f 35/41/145 36/42/146 40/46/147 39/45/148
usemtl phong11SG
f 36/42/149 34/39/150 38/43/151 40/46/152
usemtl initialShadingGroup
f 5/5/153 6/6/154 42/48/155 41/47/156
usemtl Sword:phong1SG
f 6/6/157 8/8/158 43/49/159 42/48/160
usemtl initialShadingGroup
f 8/8/161 7/7/162 44/50/163 43/49/164
usemtl Sword:phong1SG
f 7/7/165 5/5/166 41/47/167 44/50/168
usemtl phong11SG
f 41/47/169 42/48/170 46/52/171 45/51/172
usemtl Sword:phong1SG
f 42/48/173 43/49/174 47/53/175 46/52/176
usemtl phong11SG
f 43/49/177 44/50/178 48/54/179 47/53/180
usemtl Sword:phong1SG
f 44/50/181 41/47/182 45/51/183 48/54/184
f 34/39/185 33/40/186 49/56/187 50/55/188
usemtl initialShadingGroup
f 33/40/189 37/44/190 51/57/191 49/56/192
usemtl Sword:phong1SG
f 37/44/193 38/43/194 52/58/195 51/57/196
usemtl initialShadingGroup
f 38/43/197 34/39/198 50/55/199 52/58/200
usemtl Sword:phong1SG
f 50/55/201 49/56/202 53/60/203 54/59/204
usemtl phong11SG
f 49/56/205 51/57/206 55/61/207 53/60/208
usemtl Sword:phong1SG
f 51/57/209 52/58/210 56/62/211 55/61/212
usemtl phong11SG
f 52/58/213 50/55/214 54/59/215 56/62/216
usemtl initialShadingGroup
f 45/51/217 46/52/218 58/64/219 57/63/220
usemtl Sword:phong1SG
f 46/52/221 47/53/222 59/65/223 58/64/224
usemtl initialShadingGroup
f 47/53/225 48/54/226 60/66/227 59/65/228
usemtl Sword:phong1SG
f 48/54/229 45/51/230 57/63/231 60/66/232
usemtl phong11SG
f 57/63/233 58/64/234 62/68/235 61/67/236
usemtl Sword:phong1SG
f 58/64/237 59/65/238 63/69/239 62/68/240
usemtl phong11SG
f 59/65/241 60/66/242 64/70/243 63/69/244
usemtl Sword:phong1SG
f 60/66/245 57/63/246 61/67/247 64/70/248
usemtl initialShadingGroup
f 61/67/249 62/68/250 66/72/251 65/71/252
usemtl Sword:phong1SG
f 62/68/253 63/69/254 67/73/255 66/72/256
usemtl initialShadingGroup
f 63/69/257 64/70/258 68/74/259 67/73/260
usemtl Sword:phong1SG
f 64/70/261 61/67/262 65/71/263 68/74/264
usemtl phong11SG
f 65/71/265 66/72/266 70/76/267 69/75/268
usemtl Sword:phong1SG
f 66/72/269 67/73/270 71/77/271 70/76/272
usemtl phong11SG
f 67/73/273 68/74/274 72/78/275 71/77/276
usemtl Sword:phong1SG
f 94/99/277 93/100/278 95/101/279 96/102/280
f 68/74/281 65/71/282 73/80/283 74/79/284
usemtl initialShadingGroup
f 65/71/285 69/75/286 75/81/287 73/80/288
usemtl Sword:phong1SG
f 69/75/289 72/78/290 76/82/291 75/81/292
usemtl initialShadingGroup
f 72/78/293 68/74/294 74/79/295 76/82/296
usemtl Sword:phong1SG
f 74/79/297 73/80/298 77/84/299 78/83/300
usemtl phong11SG
f 73/80/301 75/81/302 79/85/303 77/84/304
usemtl Sword:phong1SG
f 75/81/305 76/82/306 80/86/307 79/85/308
usemtl phong11SG
f 76/82/309 74/79/310 78/83/311 80/86/312
usemtl Sword:phong1SG
f 78/83/313 77/84/314 81/88/315 82/87/316
usemtl initialShadingGroup
f 77/84/317 79/85/318 83/89/319 81/88/320
usemtl Sword:phong1SG
f 79/85/321 80/86/322 84/90/323 83/89/324
usemtl initialShadingGroup
f 80/86/325 78/83/326 82/87/327 84/90/328
usemtl Sword:phong1SG
f 82/87/329 81/88/330 85/92/331 86/91/332
usemtl phong11SG
f 81/88/333 83/89/334 87/93/335 85/92/336
usemtl Sword:phong1SG
f 83/89/337 84/90/338 88/94/339 87/93/340
usemtl phong11SG
f 84/90/341 82/87/342 86/91/343 88/94/344
usemtl Sword:phong1SG
f 86/91/345 85/92/346 89/96/347 90/95/348
usemtl initialShadingGroup
f 85/92/349 87/93/350 91/97/351 89/96/352
usemtl Sword:phong1SG
f 87/93/353 88/94/354 92/98/355 91/97/356
usemtl initialShadingGroup
f 88/94/357 86/91/358 90/95/359 92/98/360
usemtl Sword:phong1SG
f 90/95/361 89/96/362 93/100/363 94/99/364
usemtl phong11SG
f 89/96/365 91/97/366 95/101/367 93/100/368
usemtl Sword:phong1SG
f 91/97/369 92/98/370 96/102/371 95/101/372
usemtl phong11SG
f 92/98/373 90/95/374 94/99/375 96/102/376
