#
#
#

mtllib miku_01.mtl


#
# 100miku メッシュ
#
g 100miku メッシュ


#
# 100miku メッシュ_unnamed
#
usemtl 100miku メッシュ_unnamed

v 0.273071 0.156006 0.106948
v -0.000001 0.226826 0.278387
v 0.000000 0.052707 0.120581
v 0.000000 0.153446 -0.428346
v 0.380907 0.518356 0.064178
v -0.000001 0.569512 0.259281
v -0.000001 0.276946 0.237000
v -0.273071 0.156005 0.106947
v -0.380909 0.518355 0.064177
v 0.230959 -0.475200 -0.000328
v 0.094123 -0.665658 -0.000459
v 0.000001 -0.475097 -0.149070
v 0.000000 -0.475303 0.148414
v 0.000001 -0.475097 -0.149070
v -0.094121 -0.665658 -0.000460
v -0.230957 -0.475200 -0.000328
v 0.000000 -0.475303 0.148414
v 0.185100 0.066876 -0.039854
v 0.253609 0.146132 -0.479895
v 0.394668 0.518354 0.068035
v -0.185100 0.066875 -0.039854
v -0.394670 0.518353 0.068034
v -0.253607 0.146131 -0.479896
v -0.219224 0.691476 -0.400620
v -0.317068 0.728994 0.007959
v -0.000001 0.853223 -0.033725
v 0.219224 0.691477 -0.400619
v 0.317066 0.728995 0.007960
v -0.159475 0.518208 0.277484
v -0.000001 0.739631 0.245238
v 0.159473 0.518209 0.277485
v 0.000000 -0.242074 0.222596
v 0.211759 -0.241920 -0.000167
v 0.176443 0.000000 0.000000
v 0.000000 -0.000108 0.156816
v 0.000000 0.080676 0.000056
v 0.000000 0.000108 -0.156597
v 0.000001 -0.241836 -0.122328
v 0.000000 -0.242062 0.205350
v 0.000000 -0.475382 0.264056
v 0.327241 -0.475199 -0.000327
v 0.190583 -0.241920 -0.000167
v 0.000001 -0.475017 -0.264712
v 0.000000 -0.241848 -0.105082
v -0.176443 0.000000 0.000000
v -0.211759 -0.241920 -0.000167
v -0.327239 -0.475200 -0.000329
v -0.190583 -0.241920 -0.000167
v 0.288526 0.802206 -0.032398
v 0.417810 0.447003 -0.032643
v 0.530483 0.488051 -0.088526
v -0.127526 -0.348564 0.261856
v 0.127526 -0.348564 0.261857
v 0.000000 -0.000125 0.180720
v -0.084167 0.040677 0.104111
v 0.084167 0.040677 0.104111
v 0.581492 -0.556578 -0.413780
v 0.999840 -0.268594 -0.471064
v 0.399599 0.710946 -0.190042
v -0.401201 0.843254 -0.088283
v -0.288528 0.802205 -0.032399
v -0.259390 0.590727 -0.403085
v 0.296935 0.073712 0.088914
v -0.296935 0.073711 0.088913
v 0.183599 0.276956 0.247603
v 0.340421 -0.397439 -0.000274
v 0.000001 -0.397260 -0.261314
v -0.340419 -0.397440 -0.000275
v 0.259390 0.590728 -0.403084
v 0.401199 0.843255 -0.088281
v 0.000000 -0.417062 0.275462
v -0.530485 0.488050 -0.088528
v -0.417812 0.447002 -0.032644
v -0.581490 -0.556579 -0.413782
v -0.999838 -0.268596 -0.471067
v -0.399601 0.710945 -0.190043
v 0.124698 -0.397570 0.188710
v -0.124698 -0.397571 0.188709
vn 0.750463 -0.418067 0.511884
vn -0.000001 -0.081258 0.996693
vn 0.000001 -0.945256 0.326331
vn 0.000002 -0.898098 -0.439795
vn 0.771037 -0.175083 0.612249
vn -0.000001 -0.075917 0.997114
vn -0.000002 0.179930 0.983679
vn -0.750464 -0.418069 0.511881
vn -0.771038 -0.175085 0.612246
vn 0.812131 -0.583475 -0.000401
vn 0.096045 -0.995377 -0.000687
vn -0.329265 -0.676420 -0.658817
vn -0.329267 -0.677329 0.657882
vn 0.329268 -0.676420 -0.658816
vn -0.096042 -0.995377 -0.000687
vn -0.812129 -0.583477 -0.000404
vn 0.329266 -0.677328 0.657883
vn 0.262372 -0.835882 0.482143
vn 0.575767 -0.319804 -0.752475
vn 0.905361 0.004072 0.424623
vn -0.435630 -0.798608 0.415272
vn -0.814677 -0.043188 0.578305
vn -0.566747 -0.661693 -0.490877
vn -0.491570 0.543159 -0.680689
vn -0.646335 0.698094 0.308083
vn -0.000001 0.999975 -0.007123
vn 0.579529 0.603347 -0.547830
vn 0.646332 0.698096 0.308085
vn -0.395830 0.178737 0.900762
vn -0.000002 0.681749 0.731586
vn 0.395827 0.178738 0.900763
vn 0.657677 -0.040711 0.752199
vn 0.755958 0.431636 -0.492157
vn 0.790788 0.581417 0.191332
vn -0.000002 0.662279 0.749258
vn -0.000001 1.000000 0.000416
vn 0.000001 0.366591 -0.930382
vn 0.000001 0.302677 -0.953093
vn -0.000002 0.388999 0.921238
vn 0.000000 -0.727140 0.686489
vn 0.943313 -0.033950 0.330164
vn 0.860642 0.504198 -0.071279
vn 0.000002 -0.087421 -0.996171
vn 0.000001 0.564902 -0.825158
vn -0.790790 0.581415 0.191330
vn -0.556309 0.248915 -0.792819
vn -0.943314 -0.033953 0.330161
vn -0.860643 0.504195 -0.071282
vn 0.483514 -0.776135 0.404758
vn 0.157997 0.616450 0.771379
vn -0.128304 0.904858 0.405919
vn -0.000001 0.977524 -0.210824
vn -0.000002 0.609223 0.792999
vn -0.000002 0.882622 0.470084
vn 0.226754 -0.137634 0.964178
vn 0.517641 0.371588 -0.770695
vn 0.490411 0.187395 -0.851105
vn 0.342002 0.939699 0.000649
vn 0.661009 -0.110441 0.742207
vn -0.661011 -0.110442 0.742204
vn -0.000001 -0.122913 0.992417
vn 0.467651 0.532290 -0.705670
vn 0.000000 0.606378 -0.795177
vn 0.322316 -0.187755 -0.927826
vn 0.397120 0.143916 0.906413
vn 0.082159 -0.875018 -0.477067
vn 0.000002 -0.194799 -0.980843
vn 0.514829 0.344311 -0.785112
vn 0.499721 0.723696 -0.475966
vn 0.226756 0.137634 -0.964178
vn -0.619022 -0.342367 -0.706821
vn 0.619025 -0.342366 -0.706819
vt 0.212870 0.710990
vt 0.021600 0.758540
vt 0.021600 0.641750
vt 0.333230 0.855050
vt 0.329200 0.819200
vt 0.490800 0.854030
vt 0.288400 0.953870
vt 0.021600 0.988250
vt 0.021600 0.792120
vt 0.345900 0.980800
vt 0.986640 0.981650
vt 0.831120 0.818350
vt 0.753360 0.981650
vt 0.371020 0.440900
vt 0.546540 0.475070
vt 0.328110 0.636310
vt 0.515070 0.711090
vt 0.352130 0.727450
vt 0.368790 0.781200
vt 0.240270 0.636310
vt 0.257500 0.732120
vt 0.018000 0.147240
vt 0.196080 0.147240
vt 0.166380 0.354000
vt 0.018000 0.354000
vt 0.018000 0.420000
vt 0.536380 0.354000
vt 0.388000 0.354000
vt 0.388000 0.420000
vt 0.566080 0.147240
vt 0.388000 0.147240
vt 0.538800 0.975700
vt 0.538800 0.821700
vt 0.758800 0.821700
vt 0.658620 0.975700
vt 0.974800 0.381850
vt 0.891310 0.305950
vt 0.891310 0.457750
vt 0.871600 0.260000
vt 0.871600 0.020000
vt 0.948400 0.020000
vt 0.857440 0.528100
vt 0.990560 0.528100
vt 0.924000 0.784610
vt 0.880070 0.824540
vt 0.967930 0.824540
vt 0.242090 0.161200
vt 0.353600 0.233880
vt 0.193600 0.481200
vt 0.948400 0.260000
vt 0.910000 0.140000
vt 0.311050 0.443900
vt 0.256430 0.531900
vt 0.358000 0.020000
vt 0.728000 0.020000
vt 0.388000 0.020000
vt 0.924000 0.491740
vt 0.018000 0.020000
f 1/1/1 2/2/2 3/3/3
f 1/4/1 3/5/3 4/6/4
f 5/7/5 6/8/6 7/9/7
f 1/1/1 5/7/5 7/9/7
f 2/2/2 1/1/1 7/9/7
f 4/6/4 5/10/5 1/4/1
f 3/3/3 2/2/2 8/1/8
f 4/6/4 3/5/3 8/4/8
f 7/9/7 6/8/6 9/7/9
f 7/9/7 9/7/9 8/1/8
f 7/9/7 8/1/8 2/2/2
f 8/4/8 9/10/9 4/6/4
f 10/11/10 11/12/11 12/13/12
f 12/13/12 11/12/11 13/13/13
f 13/13/13 11/12/11 10/11/10
f 14/13/14 15/12/15 16/11/16
f 17/13/17 15/12/15 14/13/14
f 16/11/16 15/12/15 17/13/17
f 18/14/18 19/15/19 20/16/20
f 21/14/21 22/16/22 23/15/23
f 24/17/24 23/15/23 22/16/22
f 25/18/25 26/19/26 24/17/24
f 20/16/20 19/15/19 27/17/27
f 27/17/27 26/19/26 28/18/28
f 29/20/29 30/21/30 25/18/25
f 28/18/28 30/21/30 31/20/31
f 31/20/31 30/21/30 29/20/29
f 26/19/26 25/18/25 30/21/30
f 28/18/28 26/19/26 30/21/30
f 19/15/19 23/15/23 24/17/24
f 24/17/24 26/19/26 27/17/27
f 23/15/23 19/15/19 18/14/18
f 18/14/18 20/16/20 22/16/22
f 28/18/28 20/16/20 27/17/27
f 25/18/25 24/17/24 22/16/22
f 20/16/20 28/18/28 31/20/31
f 22/16/22 29/20/29 25/18/25
f 27/17/27 19/15/19 24/17/24
f 21/14/21 23/15/23 18/14/18
f 21/14/21 18/14/18 22/16/22
f 32/22/32 33/23/33 34/24/34
f 35/25/35 34/24/34 36/26/36
f 35/25/35 32/22/32 34/24/34
f 34/27/34 37/28/37 36/29/36
f 33/30/33 38/31/38 37/28/37
f 34/27/34 33/30/33 37/28/37
f 39/32/39 40/33/40 41/34/41
f 42/35/42 39/32/39 41/34/41
f 42/35/42 41/34/41 43/33/43
f 44/32/44 33/35/33 43/33/43
f 41/36/41 40/37/40 43/38/43
f 45/24/45 46/23/46 32/22/32
f 36/26/36 45/24/45 35/25/35
f 45/24/45 32/22/32 35/25/35
f 36/29/36 37/28/37 45/27/45
f 37/28/37 38/31/38 46/30/46
f 37/28/37 46/30/46 45/27/45
f 47/34/47 40/33/40 39/32/39
f 47/34/47 39/32/39 48/35/48
f 43/33/43 47/34/47 48/35/48
f 43/33/43 46/35/46 44/32/44
f 43/38/43 40/37/40 47/36/47
f 49/39/49 50/40/50 51/41/51
f 52/42/52 53/43/52 54/44/53
f 55/45/54 54/44/53 56/46/54
f 57/47/55 58/48/55 59/49/55
f 60/50/56 61/39/57 62/51/58
f 31/20/31 63/52/59 20/16/20
f 22/16/22 64/52/60 29/20/29
f 29/20/29 65/53/61 31/20/31
f 66/54/62 33/23/33 32/22/32
f 33/30/33 66/55/62 67/56/63
f 38/31/38 33/30/33 67/56/63
f 67/56/63 68/55/64 46/30/46
f 67/56/63 46/30/46 38/31/38
f 69/51/65 50/40/50 51/41/51
f 70/50/66 49/39/49 69/51/65
f 51/41/51 49/39/49 70/50/66
f 53/43/52 71/57/67 52/42/52
f 72/41/68 73/40/69 62/51/58
f 61/39/57 73/40/69 72/41/68
f 60/50/56 61/39/57 72/41/68
f 74/47/70 75/48/70 76/49/70
f 32/22/32 66/54/62 77/58/71
f 68/54/64 46/23/46 32/22/32
f 78/58/72 68/54/64 32/22/32


#
# 100miku_001 メッシュ
#
g 100miku_001 メッシュ


#
# 100miku_001 メッシュ_unnamed
#
usemtl 100miku_001 メッシュ_unnamed

v -0.332579 -0.000267 0.958377
v -0.620570 0.435617 0.704550
v -0.909012 0.000263 0.450327
v -0.216223 0.000000 0.245327
v -0.439634 0.044792 0.865274
v -0.621251 0.319233 0.705203
v -0.706161 0.145815 0.801360
v -0.803152 0.045128 0.544881
vn 0.132598 -0.412249 0.901371
vn -0.080588 0.992449 0.092471
vn -0.911313 -0.411289 -0.018702
vn 0.644362 0.225048 -0.730856
vn -0.300992 -0.204843 0.931366
vn -0.531267 0.594702 0.603395
vn -0.657694 0.102176 0.746324
vn -0.886394 -0.204304 0.415411
vt 0.589240 0.389190
vt 0.844450 0.389190
vt 0.589240 0.704280
vt 0.056480 0.459620
vt 0.056480 0.597620
vt 0.111680 0.510370
f 79/59/73 80/60/74 81/59/75
f 82/61/76 79/59/73 81/59/75
f 81/59/75 80/60/74 82/61/76
f 80/60/74 79/59/73 82/61/76
f 83/62/77 84/63/78 85/64/79
f 85/64/79 84/63/78 86/62/80
f 86/62/80 83/62/77 85/64/79


#
# 100miku_002 メッシュ
#
g 100miku_002 メッシュ


#
# 100miku_002 メッシュ_unnamed
#
usemtl 100miku_002 メッシュ_unnamed

v 0.593193 0.481730 0.852119
v 0.244862 -0.000291 1.094772
v 0.942069 0.000295 0.609086
v 0.206705 0.000000 0.296727
v 0.675055 0.161254 0.969245
v 0.593859 0.353027 0.852921
v 0.374192 0.049535 1.005945
v 0.813872 0.049906 0.699657
vn 0.069547 0.992449 0.101034
vn -0.234249 -0.412248 0.880443
vn 0.907528 -0.411287 0.085064
vn -0.557062 0.225045 -0.799398
vn 0.568547 0.102179 0.816281
vn 0.459195 0.594704 0.659899
vn 0.193115 -0.204841 0.959555
vn 0.833398 -0.204302 0.513525
vt 0.844450 0.389190
vt 0.589240 0.389190
vt 0.589240 0.704280
vt 0.111680 0.510370
vt 0.056480 0.597620
vt 0.056480 0.459620
f 87/65/81 88/66/82 89/66/83
f 89/66/83 88/66/82 90/67/84
f 90/67/84 87/65/81 89/66/83
f 88/66/82 87/65/81 90/67/84
f 91/68/85 92/69/86 93/70/87
f 94/70/88 92/69/86 91/68/85
f 91/68/85 93/70/87 94/70/88


#
# 100miku_001 メッシュ
#
g 100miku_001 メッシュ


#
# 100miku_001 メッシュ_unnamed
#
usemtl 100miku_001 メッシュ_unnamed

v -0.332579 -0.000267 0.958377
v -0.620570 0.435617 0.704550
v -0.909012 0.000263 0.450327
v -0.216223 0.000000 0.245327
v -0.439634 0.044792 0.865274
v -0.621251 0.319233 0.705203
v -0.706161 0.145815 0.801360
v -0.803152 0.045128 0.544881
vn 0.132598 -0.412249 0.901371
vn -0.080588 0.992449 0.092471
vn -0.911313 -0.411289 -0.018702
vn 0.644362 0.225048 -0.730856
vn -0.300992 -0.204843 0.931366
vn -0.531267 0.594702 0.603395
vn -0.657694 0.102176 0.746324
vn -0.886394 -0.204304 0.415411
vt 0.589240 0.389190
vt 0.844450 0.389190
vt 0.589240 0.704280
vt 0.056480 0.459620
vt 0.056480 0.597620
vt 0.111680 0.510370
f 95/71/89 96/72/90 97/71/91
f 98/73/92 95/71/89 97/71/91
f 97/71/91 96/72/90 98/73/92
f 96/72/90 95/71/89 98/73/92
f 99/74/93 100/75/94 101/76/95
f 101/76/95 100/75/94 102/74/96
f 102/74/96 99/74/93 101/76/95
