# This file uses centimeters as units for non-parametric coordinates.

mtllib Plane1.mtl
g default
v -0.500000 -0.005000 0.500000
v 0.500000 -0.005000 0.500000
v -0.500000 0.005000 0.500000
v 0.500000 0.005000 0.500000
v -0.500000 0.005000 -0.500000
v 0.500000 0.005000 -0.500000
v -0.500000 -0.005000 -0.500000
v 0.500000 -0.005000 -0.500000
v -0.500000 0.005000 0.500000
v 0.500000 0.005000 0.500000
v 0.500000 0.005000 -0.500000
v -0.500000 0.005000 -0.500000
v -0.500000 0.005000 -0.500000
v 0.500000 0.005000 -0.500000
v 0.500000 -0.005000 -0.500000
v -0.500000 -0.005000 -0.500000
v -0.500000 -0.005000 -0.500000
v 0.500000 -0.005000 -0.500000
v 0.500000 -0.005000 0.500000
v -0.500000 -0.005000 0.500000
vt 7102.154297 28465.136719
vt -7101.149902 28465.136719
vt 7102.154297 14269.808594
vt -7101.149902 14269.808594
vt 7102.154297 74.479988
vt -7093.174805 74.479988
vt 7102.154297 -14120.847656
vt -7093.174805 -14120.847656
vt 7102.154297 -28316.177734
vt -7093.174805 -28316.177734
vt -21296.482422 28465.136719
vt -21296.482422 14269.808594
vt 21297.482422 28465.136719
vt 21297.482422 14269.808594
vt 7102.154297 14436.082031
vt -7093.174805 14436.082031
vt -7093.174805 240.754883
vt 7102.154297 240.754883
vt 7102.154297 257.888367
vt -7093.174805 257.888367
vt -7093.174805 -13937.441406
vt 7102.154297 -13937.441406
vt 7102.154297 -14269.748047
vt -7093.174805 -14269.748047
vt -7093.174805 -28465.082031
vt 7102.154297 -28465.082031
vn 0.000000 0.000000 1.000000
vn 0.000000 0.000000 1.000000
vn 0.000000 0.000000 1.000000
vn 0.000000 0.000000 1.000000
vn 0.000000 1.000000 0.000000
vn 0.000000 1.000000 0.000000
vn 0.000000 1.000000 0.000000
vn 0.000000 1.000000 0.000000
vn 0.000000 0.000000 -1.000000
vn 0.000000 0.000000 -1.000000
vn 0.000000 0.000000 -1.000000
vn 0.000000 0.000000 -1.000000
vn 0.000000 -1.000000 0.000000
vn 0.000000 -1.000000 0.000000
vn 0.000000 -1.000000 0.000000
vn 0.000000 -1.000000 0.000000
vn 1.000000 0.000000 0.000000
vn 1.000000 0.000000 0.000000
vn 1.000000 0.000000 0.000000
vn 1.000000 0.000000 0.000000
vn -1.000000 0.000000 0.000000
vn -1.000000 0.000000 0.000000
vn -1.000000 0.000000 0.000000
vn -1.000000 0.000000 0.000000
vn 0.000000 0.000000 0.000000
vn 0.000000 0.000000 0.000000
vn 0.000000 0.000000 0.000000
vn 0.000000 0.000000 0.000000
vn 0.000000 0.000000 0.000000
vn 0.000000 0.000000 0.000000
vn 0.000000 0.000000 0.000000
vn 0.000000 0.000000 0.000000
vn 0.000000 0.000000 0.000000
vn 0.000000 0.000000 0.000000
vn 0.000000 0.000000 0.000000
vn 0.000000 0.000000 0.000000
vn 0.000000 0.000000 0.000000
vn 0.000000 0.000000 0.000000
vn 0.000000 0.000000 0.000000
vn 0.000000 0.000000 0.000000
vn 0.000000 0.000000 0.000000
vn 0.000000 0.000000 0.000000
vn 0.000000 0.000000 0.000000
vn 0.000000 0.000000 0.000000
vn 0.000000 0.000000 0.000000
vn 0.000000 0.000000 0.000000
vn 0.000000 0.000000 0.000000
vn 0.000000 0.000000 0.000000
vn 0.000000 0.000000 0.000000
vn 0.000000 0.000000 0.000000
vn 0.000000 0.000000 0.000000
vn 0.000000 0.000000 0.000000
vn 0.000000 0.000000 0.000000
vn 0.000000 0.000000 0.000000
vn 0.000000 0.000000 0.000000
vn 0.000000 0.000000 0.000000
vn 0.000000 0.000000 0.000000
vn 0.000000 0.000000 0.000000
vn 0.000000 0.000000 0.000000
vn 0.000000 0.000000 0.000000
vn 0.000000 0.000000 0.000000
vn 0.000000 0.000000 0.000000
vn 0.000000 0.000000 0.000000
vn 0.000000 0.000000 0.000000
vn 0.000000 0.000000 0.000000
vn 0.000000 0.000000 0.000000
vn 0.000000 0.000000 0.000000
vn 0.000000 0.000000 0.000000
vn 0.000000 0.000000 0.000000
vn 0.000000 0.000000 0.000000
vn 0.000000 0.000000 0.000000
vn 0.000000 0.000000 0.000000
s off
g pCube7
usemtl lambert10SG
f 1/1/1 2/2/2 4/4/3 3/3/4
f 9/15/5 10/16/6 11/17/7 12/18/8
f 13/19/9 14/20/10 15/21/11 16/22/12
f 17/23/13 18/24/14 19/25/15 20/26/16
f 2/2/17 8/11/18 6/12/19 4/4/20
f 7/13/21 1/1/22 3/3/23 5/14/24
f 3/3/25 4/4/26 10/16/27 9/15/28
f 4/4/29 6/6/30 11/17/31 10/16/32
f 6/6/33 5/5/34 12/18/35 11/17/36
f 5/5/37 3/3/38 9/15/39 12/18/40
f 5/5/41 6/6/42 14/20/43 13/19/44
f 6/6/45 8/8/46 15/21/47 14/20/48
f 8/8/49 7/7/50 16/22/51 15/21/52
f 7/7/53 5/5/54 13/19/55 16/22/56
f 7/7/57 8/8/58 18/24/59 17/23/60
f 8/8/61 2/10/62 19/25/63 18/24/64
f 2/10/65 1/9/66 20/26/67 19/25/68
f 1/9/69 7/7/70 17/23/71 20/26/72
g default
v -0.500000 -0.005000 0.500000
v 0.500000 -0.005000 0.500000
v -0.500000 0.005000 0.500000
v 0.500000 0.005000 0.500000
v -0.500000 0.005000 -0.500000
v 0.500000 0.005000 -0.500000
v -0.500000 -0.005000 -0.500000
v 0.500000 -0.005000 -0.500000
v -0.500000 0.005000 0.500000
v 0.500000 0.005000 0.500000
v 0.500000 0.005000 -0.500000
v -0.500000 0.005000 -0.500000
v -0.500000 0.005000 -0.500000
v 0.500000 0.005000 -0.500000
v 0.500000 -0.005000 -0.500000
v -0.500000 -0.005000 -0.500000
v -0.500000 -0.005000 -0.500000
v 0.500000 -0.005000 -0.500000
v 0.500000 -0.005000 0.500000
v -0.500000 -0.005000 0.500000
vt 7102.154297 28465.136719
vt -7101.149902 28465.136719
vt 7102.154297 14269.808594
vt -7101.149902 14269.808594
vt 7102.154297 74.479988
vt -7093.174805 74.479988
vt 7102.154297 -14120.847656
vt -7093.174805 -14120.847656
vt 7102.154297 -28316.177734
vt -7093.174805 -28316.177734
vt -21296.482422 28465.136719
vt -21296.482422 14269.808594
vt 21297.482422 28465.136719
vt 21297.482422 14269.808594
vt 7102.154297 14436.082031
vt -7093.174805 14436.082031
vt -7093.174805 240.754883
vt 7102.154297 240.754883
vt 7102.154297 257.888367
vt -7093.174805 257.888367
vt -7093.174805 -13937.441406
vt 7102.154297 -13937.441406
vt 7102.154297 -14269.748047
vt -7093.174805 -14269.748047
vt -7093.174805 -28465.082031
vt 7102.154297 -28465.082031
vn 0.000000 0.000000 1.000000
vn 0.000000 0.000000 1.000000
vn 0.000000 0.000000 1.000000
vn 0.000000 0.000000 1.000000
vn 0.000000 1.000000 0.000000
vn 0.000000 1.000000 0.000000
vn 0.000000 1.000000 0.000000
vn 0.000000 1.000000 0.000000
vn 0.000000 0.000000 -1.000000
vn 0.000000 0.000000 -1.000000
vn 0.000000 0.000000 -1.000000
vn 0.000000 0.000000 -1.000000
vn 0.000000 -1.000000 0.000000
vn 0.000000 -1.000000 0.000000
vn 0.000000 -1.000000 0.000000
vn 0.000000 -1.000000 0.000000
vn 1.000000 0.000000 0.000000
vn 1.000000 0.000000 0.000000
vn 1.000000 0.000000 0.000000
vn 1.000000 0.000000 0.000000
vn -1.000000 0.000000 0.000000
vn -1.000000 0.000000 0.000000
vn -1.000000 0.000000 0.000000
vn -1.000000 0.000000 0.000000
vn 0.000000 0.000000 0.000000
vn 0.000000 0.000000 0.000000
vn 0.000000 0.000000 0.000000
vn 0.000000 0.000000 0.000000
vn 0.000000 0.000000 0.000000
vn 0.000000 0.000000 0.000000
vn 0.000000 0.000000 0.000000
vn 0.000000 0.000000 0.000000
vn 0.000000 0.000000 0.000000
vn 0.000000 0.000000 0.000000
vn 0.000000 0.000000 0.000000
vn 0.000000 0.000000 0.000000
vn 0.000000 0.000000 0.000000
vn 0.000000 0.000000 0.000000
vn 0.000000 0.000000 0.000000
vn 0.000000 0.000000 0.000000
vn 0.000000 0.000000 0.000000
vn 0.000000 0.000000 0.000000
vn 0.000000 0.000000 0.000000
vn 0.000000 0.000000 0.000000
vn 0.000000 0.000000 0.000000
vn 0.000000 0.000000 0.000000
vn 0.000000 0.000000 0.000000
vn 0.000000 0.000000 0.000000
vn 0.000000 0.000000 0.000000
vn 0.000000 0.000000 0.000000
vn 0.000000 0.000000 0.000000
vn 0.000000 0.000000 0.000000
vn 0.000000 0.000000 0.000000
vn 0.000000 0.000000 0.000000
vn 0.000000 0.000000 0.000000
vn 0.000000 0.000000 0.000000
vn 0.000000 0.000000 0.000000
vn 0.000000 0.000000 0.000000
vn 0.000000 0.000000 0.000000
vn 0.000000 0.000000 0.000000
vn 0.000000 0.000000 0.000000
vn 0.000000 0.000000 0.000000
vn 0.000000 0.000000 0.000000
vn 0.000000 0.000000 0.000000
vn 0.000000 0.000000 0.000000
vn 0.000000 0.000000 0.000000
vn 0.000000 0.000000 0.000000
vn 0.000000 0.000000 0.000000
vn 0.000000 0.000000 0.000000
vn 0.000000 0.000000 0.000000
vn 0.000000 0.000000 0.000000
vn 0.000000 0.000000 0.000000
s off
g pCube7
f 21/27/73 22/28/74 24/30/75 23/29/76
f 29/41/77 30/42/78 31/43/79 32/44/80
f 33/45/81 34/46/82 35/47/83 36/48/84
f 37/49/85 38/50/86 39/51/87 40/52/88
f 22/28/89 28/37/90 26/38/91 24/30/92
f 27/39/93 21/27/94 23/29/95 25/40/96
f 23/29/97 24/30/98 30/42/99 29/41/100
f 24/30/101 26/32/102 31/43/103 30/42/104
f 26/32/105 25/31/106 32/44/107 31/43/108
f 25/31/109 23/29/110 29/41/111 32/44/112
f 25/31/113 26/32/114 34/46/115 33/45/116
f 26/32/117 28/34/118 35/47/119 34/46/120
f 28/34/121 27/33/122 36/48/123 35/47/124
f 27/33/125 25/31/126 33/45/127 36/48/128
f 27/33/129 28/34/130 38/50/131 37/49/132
f 28/34/133 22/36/134 39/51/135 38/50/136
f 22/36/137 21/35/138 40/52/139 39/51/140
f 21/35/141 27/33/142 37/49/143 40/52/144
